<svg xmlns="http://www.w3.org/2000/svg"><symbol id="ic_arrow_side" viewBox="0 0 13 16">
  <path fill="none" stroke="#FFFFFF" stroke-width="2" d="M326.684043,2050.06315 C325.753972,2049.47599 325,2049.89706 325,2051.00586 L325,2060.99414 C325,2062.10195 325.76213,2062.51886 326.684043,2061.93685 L334.404052,2057.06315 C335.334124,2056.47599 335.325966,2055.51886 334.404052,2054.93685 L326.684043,2050.06315 Z" transform="translate(-324 -2048)"/>
</symbol><symbol id="ic_close" viewBox="0 0 24 24">
  <path fill="#FFFFFF" fill-rule="evenodd" d="M21.6453226,3.30705834 C21.8412055,3.11117543 21.8427337,2.79511461 21.6453685,2.59774944 L21.4022506,2.35463151 C21.206393,2.15877394 20.8905807,2.15703837 20.6929417,2.35467739 L12,11.047619 L3.30705834,2.35467739 C3.11117543,2.15879448 2.79511461,2.15726634 2.59774944,2.35463151 L2.35463151,2.59774944 C2.15877394,2.79360702 2.15703837,3.10941932 2.35467739,3.30705834 L11.047619,12 L2.35467739,20.6929417 C2.15879448,20.8888246 2.15726634,21.2048854 2.35463151,21.4022506 L2.59774944,21.6453685 C2.79360702,21.8412261 3.10941932,21.8429616 3.30705834,21.6453226 L12,12.952381 L20.6929417,21.6453226 C20.8888246,21.8412055 21.2048854,21.8427337 21.4022506,21.6453685 L21.6453685,21.4022506 C21.8412261,21.206393 21.8429616,20.8905807 21.6453226,20.6929417 L12.952381,12 L21.6453226,3.30705834 Z"/>
</symbol><symbol id="ic_crown" viewBox="0 0 24 24">
  <path fill-rule="evenodd" d="M12,4 C11.647,4 11.295,4.179 11.095,4.538 L8.604,9.819 C8.417,10.216 8.042,10.423 7.665,10.423 C7.344,10.423 7.022,10.274 6.813,9.967 L3.834,5.611 C3.616,5.35 3.333,5.235 3.055,5.235 C2.478,5.235 1.922,5.73 2.009,6.438 L3.549,19.064 C3.614,19.599 4.058,20 4.583,20 L19.417,20 C19.942,20 20.386,19.599 20.451,19.064 L21.991,6.438 C22.077,5.73 21.522,5.235 20.945,5.235 C20.668,5.235 20.385,5.35 20.166,5.611 L17.187,9.967 C16.978,10.274 16.656,10.423 16.336,10.423 C15.958,10.423 15.583,10.216 15.396,9.819 L12.905,4.538 C12.705,4.179 12.353,4 12,4 M13.587,10.672 C14.096,11.752 15.149,12.423 16.336,12.423 C17.335,12.423 18.271,11.927 18.838,11.096 L19.2497236,10.4944326 C19.4056206,10.2666524 19.5041024,10.3104311 19.4715098,10.5773064 L18.685516,17.0131894 C18.6189569,17.5581899 18.1130013,18 17.5564358,18 L6.44256416,18 C5.88554956,18 5.37929587,17.5516073 5.31360861,17.0131894 L4.52842763,10.5773064 C4.49505437,10.3037562 4.58888557,10.2586253 4.75027637,10.4944326 L5.162,11.096 C5.729,11.927 6.665,12.423 7.665,12.423 C8.851,12.423 9.904,11.752 10.413,10.672 L11.7859701,7.76168401 C11.9041756,7.51112125 12.0945214,7.50835924 12.2140299,7.76168401 L13.587,10.672 Z"/>
</symbol><symbol id="ic_facebook" viewBox="0 0 24 24">
  <path fill="#FFFFFF" fill-rule="evenodd" d="M665,10.5 L665,29.5 C665,30.875 663.875,32 662.5,32 L657,32 L657,22 L660,22 L660,19 L657,19 L657.005,17.327 C657.005,16.427 657.307,16 658.601,16 L660,16 L660,12 L656,12 C653,12 653,15 653,16 L653,19 L651,19 L651,22 L653,22 L653,32 L643.5,32 C642.125,32 641,30.875 641,29.5 L641,10.5 C641,9.125 642.125,8 643.5,8 L662.5,8 C663.875,8 665,9.125 665,10.5" transform="translate(-641 -8)"/>
</symbol><symbol id="ic_line" viewBox="0 0 24 24">
  <g fill="none" fill-rule="evenodd">
    <path fill="#FFFFFF" d="M21.3989598,15.7763202 C23.1362252,13.8637346 23.9681501,11.922625 23.9681501,9.76695646 C23.9681501,4.3815646 18.5919249,0 11.9839464,0 C5.37641823,0 0,4.3815646 0,9.76695646 C0,14.5947598 4.26324933,18.6383343 10.0227346,19.4032781 C10.417126,19.4568371 10.896193,19.6295632 11.0578552,20.0236966 C11.181941,20.3268961 11.1573941,20.7774312 11.1168901,21.0850562 C11.1168901,21.0850562 10.9770402,21.9342795 10.9461877,22.1154045 C10.8940375,22.41967 10.7047399,23.3052992 11.9839464,22.7641854 C13.263378,22.2232655 18.8852976,18.6830745 21.3996354,15.7760941 L21.3989598,15.7763202"/>
    <path fill="#00B900" d="M8.20448258,13.3952121 C8.09172118,13.3952121 8,13.3032444 8,13.1902149 L8,8.20499719 C8,8.0919677 8.09172118,8 8.20448258,8 L8.9861555,8 C9.09891689,8 9.19063807,8.0919677 9.19063807,8.20499719 L9.19063807,13.1902149 C9.19063807,13.3032444 9.09891689,13.3952121 8.9861555,13.3952121 L8.20448258,13.3952121 Z"/>
    <path fill="#00B500" d="M9.00224129,8 L8.22056837,8 C8.09876676,8 8,8.09900983 8,8.22111657 L8,13.2063666 C8,13.3285056 8.09876676,13.4274831 8.22056837,13.4274831 L9.00224129,13.4274831 C9.1240429,13.4274831 9.22284183,13.3285056 9.22284183,13.2063666 L9.22284183,8.22111657 C9.22284183,8.09900983 9.1240429,8 9.00224129,8 M9.00224129,8.03230337 C9.10612333,8.03230337 9.19067024,8.11700281 9.19067024,8.22111657 L9.19067024,13.2063666 C9.19067024,13.3104803 9.10612333,13.3951798 9.00224129,13.3951798 L8.22056837,13.3951798 C8.11668633,13.3951798 8.03217159,13.3104803 8.03217159,13.2063666 L8.03217159,8.22111657 C8.03217159,8.11700281 8.11668633,8.03230337 8.22056837,8.03230337 L9.00224129,8.03230337"/>
    <path fill="#00B900" d="M13.6657587,13.3952121 C13.6486756,13.3952121 13.6310456,13.3928539 13.6133834,13.3881376 C13.6057909,13.3860702 13.6012225,13.3845843 13.5967185,13.3829368 L13.5904129,13.3806433 C13.5870349,13.3792865 13.5837855,13.3778652 13.5806005,13.3763792 C13.577126,13.3748287 13.573941,13.3732781 13.570756,13.3716306 C13.5688257,13.3706292 13.5670241,13.3695955 13.5651903,13.3685618 C13.5606863,13.3660421 13.556504,13.3635548 13.5524826,13.3608413 C13.5295764,13.3451742 13.5122038,13.3281503 13.49837,13.3085098 L11.1889652,10.1856461 L11.1889652,13.1902149 C11.1889652,13.3032444 11.097244,13.3952121 10.9844826,13.3952121 L10.2044826,13.3952121 C10.0917212,13.3952121 10,13.3032444 10,13.1902149 L10,8.20499719 C10,8.0919677 10.0917212,8 10.2044826,8 L10.9985416,8 L11.0053298,8.00038764 C11.0095121,8.00051685 11.0127936,8.00061376 11.0161072,8.00090449 C11.0196783,8.00122753 11.0232815,8.00171208 11.0268847,8.00222893 C11.0302949,8.00271348 11.0328686,8.00306882 11.0354745,8.00352107 C11.039496,8.00426404 11.0433887,8.00516854 11.0473137,8.00613764 L11.0544879,8.00797893 C11.0585737,8.00914185 11.0626273,8.0104986 11.0666166,8.01191994 L11.0733083,8.0143427 C11.0771046,8.01586096 11.0809973,8.01754073 11.0847936,8.01934972 L11.0911635,8.02241854 C11.0950563,8.02438904 11.0986917,8.02645646 11.1022949,8.02858848 L11.1084075,8.03230337 C11.1120429,8.03466152 11.1155496,8.03708427 11.118992,8.03963624 L11.1245255,8.04373876 C11.1281609,8.04664607 11.1317963,8.04977949 11.1353995,8.05300983 L11.1391957,8.05646629 C11.1433137,8.060375 11.147303,8.06457444 11.1511635,8.06893539 C11.1582413,8.07697893 11.1637105,8.08385955 11.1685684,8.09116011 L13.4733726,11.241191 L13.4733726,8.20499719 C13.4733726,8.0919677 13.5650617,8 13.677823,8 L14.4598499,8 C14.5725791,8 14.6643324,8.0919677 14.6643324,8.20499719 L14.6643324,13.1902149 C14.6643324,13.3032444 14.5725791,13.3952121 14.4598499,13.3952121 L13.6657587,13.3952121 Z"/>
    <path fill="#00B500" d="M14.4759357,8 L13.6939088,8 C13.5720751,8 13.4733405,8.09900983 13.4733405,8.22111657 L13.4733405,11.2080801 L11.1980375,8.09829916 C11.1927614,8.09041713 11.186874,8.08298736 11.1806649,8.07588062 C11.1802145,8.07533146 11.1797319,8.07484691 11.1792493,8.07429775 C11.1750992,8.06964607 11.1707882,8.06509129 11.166252,8.06079494 C11.1649008,8.05950281 11.1635496,8.05830758 11.1621662,8.05708006 C11.1583378,8.0536559 11.1544772,8.05029635 11.1504558,8.04709831 C11.1485255,8.04561236 11.146563,8.04419101 11.1446005,8.04273736 C11.1409008,8.04002388 11.1371046,8.037375 11.1331796,8.03485534 C11.130992,8.03343399 11.1287721,8.03210955 11.1265201,8.03078511 C11.1226273,8.02849157 11.1186702,8.02626264 11.1146166,8.02422753 C11.1123324,8.0230323 11.1100483,8.02196629 11.1077319,8.02086798 C11.1035818,8.01892978 11.0993673,8.01708848 11.0951206,8.01540871 C11.0927721,8.01450421 11.0903914,8.01363202 11.0880429,8.01282444 C11.0837319,8.01127388 11.0793887,8.00985253 11.0749491,8.0085927 C11.0724075,8.00784972 11.0698338,8.00723596 11.0672922,8.00658989 C11.0630134,8.00555618 11.0587989,8.00458708 11.0544558,8.00377949 C11.0513995,8.00323034 11.048311,8.00281039 11.0452225,8.00239045 C11.0413619,8.00184129 11.0374692,8.00129213 11.0335764,8.0009368 C11.029748,8.00061376 11.0258874,8.00048455 11.0220268,8.00038764 C11.0195818,8.00029073 11.0171367,8 11.0146273,8 L10.2205684,8 C10.0987667,8 10,8.09900983 10,8.22111657 L10,13.2063666 C10,13.3285056 10.0987667,13.4274831 10.2205684,13.4274831 L11.0005684,13.4274831 C11.12237,13.4274831 11.2211367,13.3285056 11.2211367,13.2063666 L11.2211367,10.2506081 L13.5012976,13.3339649 C13.5169008,13.3560927 13.5359464,13.3742149 13.5570509,13.3886222 C13.5579196,13.3892037 13.5587239,13.3898174 13.5595925,13.3903666 C13.564,13.3933385 13.5685684,13.396052 13.5731689,13.3986362 C13.5752279,13.3998315 13.5772869,13.4009944 13.5794424,13.402125 C13.5828847,13.403934 13.5863593,13.4055815 13.5899303,13.4071966 C13.593437,13.4088118 13.5969437,13.4103301 13.6005147,13.4117837 C13.6027668,13.4126882 13.6050831,13.4134635 13.6073673,13.4143034 C13.6122574,13.4160478 13.6172118,13.4176629 13.6222627,13.4190843 C13.6232922,13.419375 13.6243539,13.4196334 13.6253834,13.4199242 C13.6434316,13.4247051 13.6623164,13.4274831 13.6818445,13.4274831 L14.4759357,13.4274831 C14.5977373,13.4274831 14.696504,13.3285056 14.696504,13.2063666 L14.696504,8.22111657 C14.696504,8.09900983 14.5977373,8 14.4759357,8 M14.4759357,8.03230337 C14.5798177,8.03230337 14.6643324,8.11700281 14.6643324,8.22111657 L14.6643324,13.2063666 C14.6643324,13.3104803 14.5798177,13.3951798 14.4759357,13.3951798 L13.6818445,13.3951798 C13.6661448,13.3951798 13.6498981,13.3930154 13.6336193,13.3886868 L13.6310456,13.3880084 L13.6309169,13.3879761 C13.6266059,13.3867809 13.6223914,13.3853919 13.6172761,13.3835506 C13.6156676,13.3829691 13.614059,13.3824199 13.6123539,13.3817416 C13.6092976,13.380514 13.6063056,13.3791896 13.6030885,13.3777037 C13.6000965,13.3763792 13.5971689,13.3749902 13.5943378,13.3734719 C13.5925684,13.3725674 13.5908633,13.3715983 13.5888686,13.3704354 C13.585008,13.3682711 13.5811796,13.3659775 13.5764826,13.3628441 L13.5753566,13.3620365 L13.5751635,13.3619073 C13.5562788,13.3490506 13.5402895,13.3333511 13.5271314,13.3147121 L11.2469705,10.2313553 L11.1889652,10.1529228 L11.1889652,10.2506081 L11.1889652,13.2063666 C11.1889652,13.3104803 11.1044504,13.3951798 11.0005684,13.3951798 L10.2205684,13.3951798 C10.1166863,13.3951798 10.0321716,13.3104803 10.0321716,13.2063666 L10.0321716,8.22111657 C10.0321716,8.11700281 10.1166863,8.03230337 10.2205684,8.03230337 L11.0146273,8.03230337 L11.016815,8.03243258 L11.0210617,8.03265871 C11.024311,8.03275562 11.0275603,8.03285253 11.0308418,8.03314326 C11.034059,8.03340169 11.037244,8.03388624 11.0408794,8.03437079 C11.0434852,8.03475843 11.0460912,8.03508146 11.0487292,8.03556601 C11.0523968,8.03624438 11.056,8.03708427 11.060697,8.03824719 C11.0624987,8.03869944 11.0643324,8.03911938 11.0662306,8.03966854 C11.0699946,8.04073455 11.0736622,8.04196208 11.0774263,8.04331882 C11.0794853,8.04402949 11.0815442,8.04477247 11.083378,8.04548315 C11.0870134,8.04690449 11.0905845,8.04848736 11.0946381,8.05039326 C11.0963753,8.05120084 11.0981126,8.05200843 11.1001072,8.05304213 C11.1035496,8.05478652 11.1068954,8.05666011 11.1102413,8.05866292 C11.1121394,8.05976124 11.1140054,8.06089185 11.1158391,8.06205478 C11.119185,8.0642191 11.1224343,8.06648034 11.1254906,8.06870927 L11.1269383,8.06980758 L11.1305416,8.07248876 C11.1340483,8.07526685 11.1374263,8.07817416 11.1404504,8.08091994 L11.1423807,8.08266433 L11.1440858,8.08418258 C11.1479786,8.08789747 11.1516783,8.09180618 11.1552493,8.0958441 L11.156311,8.09697472 L11.1564397,8.09713624 C11.1624558,8.10401685 11.1673137,8.11028371 11.1721072,8.11742275 L13.4474424,11.2272037 L13.5055121,11.3066053 L13.5055121,11.2080801 L13.5055121,8.22111657 C13.5055121,8.11700281 13.5900268,8.03230337 13.6939088,8.03230337 L14.4759357,8.03230337"/>
    <path fill="#00B900" d="M4.20448257,13.3952121 C4.15133512,13.3952121 4.10117962,13.374861 4.06289544,13.3379059 L4.05980697,13.3351278 L4.05704021,13.332059 C4.0202681,13.293618 4,13.243257 4,13.1902149 L4,8.20499719 C4,8.0919677 4.09172118,8 4.20448257,8 L4.98715281,8 C5.09991421,8 5.19166756,8.0919677 5.19166756,8.20499719 L5.19166756,12.1993413 L7.36665951,12.1993413 C7.47919571,12.1993413 7.5707882,12.2914382 7.5707882,12.4046615 L7.5707882,13.1898919 C7.5707882,13.3030829 7.47919571,13.3952121 7.36665951,13.3952121 L4.20448257,13.3952121 Z"/>
    <path fill="#00B500" d="M5.0032386,8 L4.22056836,8 C4.09873458,8 4,8.09900983 4,8.22111657 L4,13.2060112 L4,13.2063666 C4,13.2658048 4.02348525,13.3196545 4.06154424,13.3593876 C4.06257373,13.3604537 4.0635067,13.3616166 4.06453619,13.3626826 C4.06559786,13.3637163 4.06675603,13.3646531 4.06781769,13.3656868 C4.10742091,13.4039017 4.16101877,13.4274831 4.22021448,13.4274831 L4.22056836,13.4274831 L7.3827453,13.4274831 C7.50432171,13.4274831 7.60295978,13.3283441 7.60295978,13.2060112 L7.60295978,12.4208132 C7.60295978,12.2984803 7.50432171,12.1993413 7.3827453,12.1993413 L5.22380697,12.1993413 L5.22380697,8.22111657 C5.22380697,8.09900983 5.12504021,8 5.0032386,8 M5.0032386,8.03230337 C5.10712064,8.03230337 5.19163538,8.11700281 5.19163538,8.22111657 L5.19163538,12.1993413 L5.19163538,12.2316447 L5.22380697,12.2316447 L7.3827453,12.2316447 C7.48643431,12.2316447 7.5707882,12.3165056 7.5707882,12.4208132 L7.5707882,13.2060112 C7.5707882,13.3103188 7.48643431,13.3951798 7.3827453,13.3951798 L4.22021448,13.3951798 C4.17160322,13.3951798 4.12540483,13.3764438 4.09020912,13.342493 C4.08930831,13.3416208 4.08837534,13.3407486 4.08718499,13.3397149 C4.08634853,13.3387458 4.08551206,13.3377767 4.08473995,13.3370014 C4.0508311,13.3015969 4.03217158,13.2552093 4.03217158,13.2060112 L4.03217158,8.22111657 C4.03217158,8.11700281 4.11668633,8.03230337 4.22056836,8.03230337 L5.0032386,8.03230337"/>
    <path fill="#00B900" d="M16.2044826,13.3952121 C16.1513029,13.3952121 16.1011474,13.374861 16.0628954,13.3379059 L16.06,13.3353216 L16.056815,13.3318329 C16.0202359,13.293618 16,13.243257 16,13.1902149 L16,8.20532022 C16,8.15227809 16.0201072,8.10211095 16.0565576,8.06370225 L16.0587775,8.0613118 L16.0622842,8.05785534 C16.1006005,8.02054494 16.1509812,8 16.2040965,8 L19.3660161,8 C19.4785523,8 19.5700804,8.09209691 19.5700804,8.20532022 L19.5700804,8.99051826 C19.5700804,9.10374157 19.4785523,9.19587078 19.3660161,9.19587078 L17.1903163,9.19587078 L17.1903163,10.0996868 L19.3660161,10.0996868 C19.4785523,10.0996868 19.5700804,10.1917837 19.5700804,10.305007 L19.5700804,11.0902051 C19.5700804,11.2034284 19.4785523,11.2955253 19.3660161,11.2955253 L17.1903163,11.2955253 L17.1903163,12.1993413 L19.3660161,12.1993413 C19.4785523,12.1993413 19.5700804,12.2914382 19.5700804,12.4046615 L19.5700804,13.1898919 C19.5700804,13.3030829 19.4785523,13.3952121 19.3660161,13.3952121 L16.2044826,13.3952121 Z"/>
    <path fill="#00B500" d="M19.3820697,8 L16.2205684,8 L16.2201823,8 C16.1606971,8 16.1068097,8.02383989 16.0671743,8.06237781 C16.0663378,8.0632177 16.0653727,8.06396067 16.0645684,8.06480056 C16.0633137,8.06606039 16.062252,8.06744944 16.0610295,8.06867697 C16.0232922,8.10837781 16,8.1619691 16,8.22111657 L16,8.22147191 L16,13.2060112 L16,13.2063666 C16,13.2658048 16.0234853,13.3196545 16.0615443,13.3593876 C16.0625737,13.3604537 16.0635067,13.3616166 16.0645362,13.3626826 C16.0655979,13.3637163 16.066756,13.3646531 16.0678177,13.3656868 C16.1074209,13.4039017 16.1609866,13.4274831 16.2201823,13.4274831 L16.2205684,13.4274831 L19.3820697,13.4274831 C19.5036783,13.4274831 19.6022842,13.3283441 19.6022842,13.2060112 L19.6022842,12.4208132 C19.6022842,12.2984803 19.5036783,12.1993413 19.3820697,12.1993413 L17.222488,12.1993413 L17.222488,11.3278287 L19.3820697,11.3278287 C19.5036783,11.3278287 19.6022842,11.2286573 19.6022842,11.1063567 L19.6022842,10.3211264 C19.6022842,10.1988258 19.5036783,10.0996545 19.3820697,10.0996545 L17.222488,10.0996545 L17.222488,9.22817416 L19.3820697,9.22817416 C19.5036783,9.22817416 19.6022842,9.12900281 19.6022842,9.00666995 L19.6022842,8.22147191 C19.6022842,8.09913904 19.5036783,8 19.3820697,8 M19.3820697,8.03230337 C19.4857587,8.03230337 19.5701126,8.11716433 19.5701126,8.22147191 L19.5701126,9.00666995 C19.5701126,9.11097753 19.4857587,9.19587079 19.3820697,9.19587079 L17.222488,9.19587079 L17.1903164,9.19587079 L17.1903164,9.22817416 L17.1903164,10.0996545 L17.1903164,10.1319579 L17.222488,10.1319579 L19.3820697,10.1319579 C19.4857587,10.1319579 19.5701126,10.2168188 19.5701126,10.3211264 L19.5701126,11.1063567 C19.5701126,11.2106643 19.4857587,11.2955253 19.3820697,11.2955253 L17.222488,11.2955253 L17.1903164,11.2955253 L17.1903164,11.3278287 L17.1903164,12.1993413 L17.1903164,12.2316447 L17.222488,12.2316447 L19.3820697,12.2316447 C19.4857587,12.2316447 19.5701126,12.3165056 19.5701126,12.4208132 L19.5701126,13.2060112 C19.5701126,13.3103188 19.4857587,13.3951798 19.3820697,13.3951798 L16.2201823,13.3951798 C16.1716032,13.3951798 16.1254048,13.3764438 16.0902091,13.342493 C16.0893083,13.3416208 16.0883432,13.3407486 16.0872172,13.3397149 C16.0863807,13.3387458 16.0855121,13.3377767 16.08474,13.3370014 C16.0508311,13.3015969 16.0321716,13.2552093 16.0321716,13.2060112 L16.0321716,8.22111657 C16.0321716,8.17256461 16.0506703,8.12637079 16.0841609,8.09116011 C16.0850617,8.09022331 16.0859303,8.08925421 16.087185,8.08776826 C16.0880858,8.08699298 16.0889866,8.08618539 16.0895657,8.08560393 C16.1248901,8.05123315 16.1712815,8.03230337 16.2205684,8.03230337 L19.3820697,8.03230337"/>
  </g>
</symbol><symbol id="ic_tel" viewBox="0 0 18 18">
  <g fill="none" fill-rule="evenodd" transform="translate(-3 -3)">
    <polygon points="0 0 24 0 24 24 0 24"/>
    <path fill="#FFFFFF" d="M6.62,10.79 C8.06,13.62 10.38,15.93 13.21,17.38 L15.41,15.18 C15.68,14.91 16.08,14.82 16.43,14.94 C17.55,15.31 18.76,15.51 20,15.51 C20.55,15.51 21,15.96 21,16.51 L21,20 C21,20.55 20.55,21 20,21 C10.61,21 3,13.39 3,4 C3,3.45 3.45,3 4,3 L7.5,3 C8.05,3 8.5,3.45 8.5,4 C8.5,5.25 8.7,6.45 9.07,7.57 C9.18,7.92 9.1,8.31 8.82,8.59 L6.62,10.79 L6.62,10.79 Z"/>
  </g>
</symbol><symbol id="ic_twitter" viewBox="0 0 24 24">
  <path fill="#FFFFFF" fill-rule="evenodd" d="M225.143,16.908 C225.149,17.061 225.153,17.217 225.153,17.372 C225.153,22.11 221.547,27.572 214.953,27.572 C212.928,27.572 211.044,26.979 209.458,25.961 C209.739,25.994 210.024,26.012 210.313,26.012 C211.993,26.012 213.539,25.438 214.765,24.477 C213.196,24.449 211.873,23.412 211.416,21.988 C211.636,22.031 211.86,22.051 212.091,22.051 C212.418,22.051 212.734,22.006 213.036,21.926 C211.395,21.597 210.16,20.148 210.16,18.41 L210.16,18.366 C210.643,18.634 211.196,18.797 211.784,18.812 C210.822,18.171 210.189,17.073 210.189,15.83 C210.189,15.173 210.366,14.556 210.674,14.028 C212.442,16.196 215.083,17.624 218.064,17.773 C218.002,17.51 217.971,17.237 217.971,16.955 C217.971,14.977 219.576,13.372 221.556,13.372 C222.587,13.372 223.519,13.806 224.173,14.504 C224.989,14.343 225.756,14.045 226.449,13.633 C226.181,14.471 225.613,15.173 224.873,15.616 C225.598,15.532 226.289,15.339 226.931,15.053 C226.45,15.77 225.843,16.401 225.143,16.908 M227.5,8 L208.5,8 C207.125,8 206,9.125 206,10.5 L206,29.5 C206,30.875 207.125,32 208.5,32 L227.5,32 C228.875,32 230,30.875 230,29.5 L230,10.5 C230,9.125 228.875,8 227.5,8" transform="translate(-206 -8)"/>
</symbol><symbol id="ic_zoom" viewBox="0 0 24 24">
  <g fill="#FFFFFF" fill-rule="evenodd">
    <path d="M4,9 C4,6.239 6.239,4 9,4 C11.761,4 14,6.239 14,9 C14,11.761 11.761,14 9,14 C6.239,14 4,11.761 4,9 M21.191,20.776 L14.147,13.733 C15.294,12.486 16,10.828 16,9 C16,5.134 12.866,2 9,2 C5.134,2 2,5.134 2,9 C2,12.866 5.134,16 9,16 C10.325,16 11.56,15.625 12.617,14.985 C12.649,15.03 12.668,15.082 12.709,15.123 L19.776,22.191 C20.163,22.577 20.802,22.583 21.192,22.192 C21.586,21.799 21.582,21.168 21.191,20.776"/>
    <polygon points="12.444 8.446 9.444 8.446 9.444 5.446 8.444 5.446 8.444 8.446 5.444 8.446 5.444 9.446 8.444 9.446 8.444 12.446 9.444 12.446 9.444 9.446 12.444 9.446"/>
  </g>
</symbol></svg>