<svg xmlns="http://www.w3.org/2000/svg" xmlns:xlink="http://www.w3.org/1999/xlink">
<defs>
  <style>
  #wave {
    fill: #0000BA;
  }
  #jp {
    fill: #666666;
  }
  #small{
    visibility: visible;
  }
  #big {
    visibility: hidden;
  }
  @media screen and (min-width: 185px){
    #small{
      visibility: hidden;
    }
    #big {
      visibility: visible;
    }
  }
  </style>
</defs>
<symbol id="mark" viewBox="0 0 60 50">
    <path id="S" d="M23.1 35.6l8.6-.6c-.4 1.1-.5 2.3-.3 3.5.4 1.3 1.7 2.1 3.1 1.9 1.2 0 2.3-.4 3.3-1 .9-.5 1.5-1.3 1.9-2.3.3-.7.3-1.5 0-2.2-1-1-2.3-1.6-3.7-1.8-3.5-1-5.7-2.2-6.7-3.8-1.1-1.6-1-3.6 0-6.1.7-1.7 1.8-3.3 3.1-4.6 1.4-1.5 3.2-2.7 5.2-3.4 2.4-.9 4.9-1.3 7.5-1.2 3.6 0 5.9.7 7.4 2.2 1.2 1.5 1.5 3.8.5 7.1l-8.6.6c.3-1 .3-2.1-.1-3.1-.6-.7-1.6-1.1-2.5-1-.9 0-1.8.2-2.6.7-.7.4-1.2 1-1.5 1.8-.2.4-.2.9.1 1.4.7.6 1.5 1 2.5 1.2 2.5.5 4.9 1.4 7.1 2.7 1.1.9 1.9 2.1 2.2 3.5.2 1.6-.1 3.2-.7 4.7-.9 2.1-2.2 4-3.8 5.6-1.6 1.7-3.6 3-5.8 3.9-2.3.9-4.9 1.4-7.4 1.3-4.8 0-7.6-1-8.7-3.1-1.2-2.5-1.1-5.4-.1-7.9z"/>
    <g id="wave">
      <path d="M9.8 42.2C5.9 46.9.1 48.8 0 48.5c3.7-1.6 6.8-4.1 9.2-7.4 4.3-5.8 8-16.2 12.1-21.8 5.9-8.2 12.8-12.2 22.5-12 5.4.2 10.6 1.8 15.1 4.8-.2.3-7.6-2.2-15-1.7-9.6.8-15.4 4.2-21.9 12.6-5.2 6.2-6.9 13.2-12.2 19.2z"/>
      <path d="M22.5 14.7c-4.6 7-8.6 14.3-11.8 22 0-.3 2.3-6.5 2.3-6.5 2.2-6.4 5-12.6 8.4-18.5 3.9-6 8.3-8.7 13.5-9.8 3.3-.7 6.7-.8 10-.1-.3 1-13.9 1.7-22.4 12.9z"/>
      <path d="M18.5 13.6c-2.4 5.4-4.5 11-6.3 16.7 1.3-6.4 3-12.7 5.1-18.9 3.3-8.6 10.5-8.9 11-8.2.3.9-5.8 2.4-9.8 10.4zm-3-1.1c-1.2 3.5-2 7.1-2.5 10.7.1-4.1.6-8.2 1.5-12.3 1.9-7.2 3.7-7.9 4.7-7.2 1.2 1.4-1.7 3-3.7 8.8z"/>
    </g>
</symbol>
<symbol id="responsive" viewBox="0 0 310 50">
    <path d="M207.3 16.1h8.2c1.2 5.9 2.5 11.6 3.6 17.5l7.1-17.5h8.2l-12.9 31.6h-8.2c-1.2-5.9-2.4-11.6-3.6-17.5l-7.1 17.5h-8.2l12.9-31.6zm31 4.9h18.6l-2.2 5.4H243l-1.6 4h10.8l-2.1 5.1h-10.8l-2 4.9h12l-2.3 5.7h-18.9L238.3 21zm20.8 0h6.6c-1.1 4.7-2.1 9.3-3.3 14 3.2-4.7 6.1-9.3 9.2-14h6.5c-.8 4.7-1.5 9.3-2.2 14 2.8-4.7 5.4-9.3 8.1-14h6.6c-5.2 8.5-10.1 16.6-15.2 25.1h-6.8c.9-5.4 1.7-10.5 2.5-15.8-3.5 5.4-6.8 10.5-10.3 15.8H254c1.6-8.4 3.3-16.5 5.1-25.1zm25.7 16.9l6.8-.5c-.3.9-.4 1.8-.3 2.8.3 1 1 1.5 2.5 1.5.9 0 1.8-.3 2.6-.8.6-.5 1.1-1.1 1.5-1.8.3-.5.3-1.2 0-1.8-.4-.5-1.2-1-3-1.5-2.7-.8-4.5-1.8-5.3-3.1-.8-1.5-.8-3.3 0-4.9.6-1.4 1.4-2.6 2.5-3.7 1.2-1.2 2.6-2.1 4.1-2.7 1.9-.7 3.9-1 5.9-1 2.8 0 4.8.6 5.9 1.8 1.1 1.2 1.2 3.1.4 5.7l-6.8.4c.3-.8.3-1.6-.1-2.4-.5-.6-1.2-.9-2-.8-.7 0-1.5.2-2.1.6-.5.3-.9.8-1.2 1.4-.2.3-.2.8 0 1.1.2.4.8.6 2 .9 2 .4 3.9 1.2 5.6 2.2 1 .6 1.6 1.6 1.7 2.8.1 1.3-.1 2.6-.6 3.7-.7 1.7-1.7 3.2-3 4.4-1.3 1.3-2.9 2.4-4.6 3.1-1.9.7-3.9 1.1-5.9 1-4 0-6.2-.8-7-2.5-.5-1.3-.3-3.4.4-5.9z" id="News_1_"/>
    <g id="hikoku">
      <path d="M59.3 21h7l-3.6 8.9h7.6l3.6-8.9h7L70.7 46.1h-7L67.8 36h-7.6l-4.1 10.2h-7L59.3 21zm27.1 0h7L83.1 46.1h-6.9L86.4 21zm12.4 0h7l-3.8 9.5c3.7-3.2 7.4-6.3 11.2-9.5h9.3c-4 3.2-7.9 6.3-12.1 9.5.8 5.3 1.5 10.3 2.2 15.7H104c-.1-3.5-.4-6.9-.5-10.3-1.9 1.5-3.5 2.8-5.3 4.2l-2.5 6.1h-7L98.8 21z"/>
      <path d="M127.6 28.2c1.1-1 2.5-1.6 4.1-1.7 1.6 0 2.4.5 2.8 1.6.4 1.1.1 2.8-.8 5.2-.7 2.2-2 4.2-3.6 5.9-1.1 1-2.6 1.6-4.1 1.6-1.2.1-2.3-.5-2.8-1.7-.4-1.1-.1-3 1-5.5.6-2 1.8-3.9 3.4-5.4zm-12 12.8c.1 1.7.9 3.3 2.3 4.3 1.7 1 3.8 1.5 5.8 1.4 2.4 0 4.8-.5 6.9-1.6 2.2-1.1 4.1-2.6 5.6-4.4 1.8-2.2 3.2-4.6 4.3-7.2 1.7-4.1 1.9-7.1.8-9.5-1.2-2.3-3.5-3.4-7.3-3.4-3.6 0-7.1 1.2-10 3.4-3.2 2.5-5.6 5.8-7 9.6-1.1 2.3-1.6 4.9-1.4 7.4zm33.1-20h7l-3.9 9.5c3.7-3.2 7.4-6.3 11.2-9.5h9.3c-4 3.2-7.9 6.3-12.1 9.5.8 5.3 1.5 10.3 2.2 15.7h-8.6c-.1-3.5-.4-6.9-.5-10.3-1.9 1.5-3.6 2.8-5.3 4.2l-2.5 6.1h-7L148.7 21zm41.8 0h7l-6.1 15c-.7 1.5-1.5 2.9-2.4 4.2-1 1.3-2.1 2.5-3.4 3.5-1.1.9-2.3 1.6-3.6 2.1-1.7.6-3.4.9-5.2.8-1.2 0-2.3-.1-3.5-.3-1-.1-2-.4-2.8-1-.7-.5-1.3-1.3-1.5-2.2-.3-.9-.4-2-.3-3 .2-1.5.6-2.9 1.1-4.3l6.1-15h7l-6.3 15.4c-.5 1-.7 2.1-.3 3.2.5.8 1.4 1.3 2.3 1.2 1.2 0 2.3-.4 3.3-1.1 1.1-.8 1.9-2 2.3-3.2l6.3-15.3z"/>
    </g>
    <g id="jp">
      <path d="M115.2 7.1h.9V1h-6.5v14h1.8V7.1h3.8zm-.9-2.2v.8h-2.9v-.8h2.9zm-2.9-1.3V2.5h2.8v1.1h-2.8zM122.1 1h-5.5v6.1h4.6V15h1.8V1h-.9zm-.9 2.6h-2.8V2.5h2.8v1.1zm-2.8 2.1v-.8h2.8v.8h-2.8z"/>
      <path d="M112.6 9.2h.8V13h-.8v1.3h4.9v.7h1.8V9.2h.8V8h-7.4l-.1 1.2zm2.6 1.6h2.2v.6h-2.2v-.6zm0 2.2v-.6h2.2v.6h-2.2zm2.3-3.1h-2.3v-.7h2.2l.1.7zm-10.4-4.2h-5V3.5c0-.3.1-.5.3-.7.2-.2.5-.2.8-.2h3.8V1.1h-3.8c-.8-.1-1.6.2-2.2.7-.5.5-.7 1.1-.7 1.8V15h1.8V7.2h1.7V15h1.8V7.2h1.5V5.7zm-9.5 4.5h2.1V8.7h-2.1V7.2h2.1V5.8h-.8V3.7h.8V2.2h-2.1V1.1h-1.8v1.1h-2.2v1.5h.8v2h-.8v1.5h2.2v1.5h-2.2v1.5h2.2c-.5 1-1.3 1.8-2.2 2.4V15s.8-.2 2.2-2.1V15h1.8v-2.1c1.4 1.9 2.2 2.1 2.2 2.1v-2.3c-.9-.7-1.7-1.5-2.2-2.5zm-1.7-6h1.5v1.5h-1.5V4.2zM74.5 1H62.2v13.9h13.3V1h-1zm-.9 8.4h-.8c-.4 0-.8-.1-1.2-.3-.2-.2-.3-.5-.3-.8V2.5h2.2v6.9zM64 13.5v-11h2.2v4.7c0 1.1-.3 2.1-1 3V12c1.8-1 2.8-2.9 2.7-4.9V2.5h1.6v5.7c-.1.7.2 1.4.7 1.9.7.6 1.6.9 2.5.8h.8v2.6H64zM78.8 1h-.9v13.9h13.3V1H78.8zm10.5 12.5h-9.6v-11h9.6v11z"/>
      <path d="M88 11h.6V8.8h-1.8V11h-1.4V8.4H88V7h-2.6V5.1H88V3.6h-7.1v1.5h2.7V7h-2.7v1.5h2.7V11h-2.7v1.5H88V11zm48.4 2.5V7.3h2.4V5.8h-2.4V1h-1.8v4.8h-2.3v1.5h2.3v6.2h-2.7V15h7.3v-1.5h-2.8z"/>
      <path d="M132.3 11.9V9.8c-.7-.4-1.4-.8-2.2-1 1.4-1.5 2.2-3.5 2.4-5.5 0-1.1-1.3-1-1.3-1h-1.5V1H128v1.3h-2.5v1.5h4.8s.4 0 .5.1v.5c-.8 2.5-2.7 4.5-5.2 5.4v1.9c.9-.3 1.7-.6 2.5-1.1V15h1.8v-4.5c.8.4 1.6.9 2.4 1.4z"/>
    </g>
</symbol>

<svg id="big" viewBox="0 0 310 50">
  <use xlink:href="#mark" width="60" x="0"/>
  <use xlink:href="#responsive" width="260" x="10"/>
</svg>
<svg id="small" viewBox="0 0 60 50">
  <use xlink:href="#mark" width="60" x="0"/>
</svg>

</svg>
