<svg xmlns="http://www.w3.org/2000/svg" width="24" height="24" viewBox="0 0 24 24">
  <path fill="#FFFFFF" fill-rule="evenodd" d="M12,4 C11.647,4 11.295,4.179 11.095,4.538 L8.604,9.819 C8.417,10.216 8.042,10.423 7.665,10.423 C7.344,10.423 7.022,10.274 6.813,9.967 L3.834,5.611 C3.616,5.35 3.333,5.235 3.055,5.235 C2.478,5.235 1.922,5.73 2.009,6.438 L3.549,19.064 C3.614,19.599 4.058,20 4.583,20 L19.417,20 C19.942,20 20.386,19.599 20.451,19.064 L21.991,6.438 C22.077,5.73 21.522,5.235 20.945,5.235 C20.668,5.235 20.385,5.35 20.166,5.611 L17.187,9.967 C16.978,10.274 16.656,10.423 16.336,10.423 C15.958,10.423 15.583,10.216 15.396,9.819 L12.905,4.538 C12.705,4.179 12.353,4 12,4 M13.587,10.672 C14.096,11.752 15.149,12.423 16.336,12.423 C17.335,12.423 18.271,11.927 18.838,11.096 L19.2497236,10.4944326 C19.4056206,10.2666524 19.5041024,10.3104311 19.4715098,10.5773064 L18.685516,17.0131894 C18.6189569,17.5581899 18.1130013,18 17.5564358,18 L6.44256416,18 C5.88554956,18 5.37929587,17.5516073 5.31360861,17.0131894 L4.52842763,10.5773064 C4.49505437,10.3037562 4.58888557,10.2586253 4.75027637,10.4944326 L5.162,11.096 C5.729,11.927 6.665,12.423 7.665,12.423 C8.851,12.423 9.904,11.752 10.413,10.672 L11.7859701,7.76168401 C11.9041756,7.51112125 12.0945214,7.50835924 12.2140299,7.76168401 L13.587,10.672 Z"/>
</svg>
