<svg xmlns="http://www.w3.org/2000/svg" width="24" height="24" viewBox="0 0 24 24">
  <path fill="#FFFFFF" fill-rule="evenodd" d="M21.6453226,3.30705834 C21.8412055,3.11117543 21.8427337,2.79511461 21.6453685,2.59774944 L21.4022506,2.35463151 C21.206393,2.15877394 20.8905807,2.15703837 20.6929417,2.35467739 L12,11.047619 L3.30705834,2.35467739 C3.11117543,2.15879448 2.79511461,2.15726634 2.59774944,2.35463151 L2.35463151,2.59774944 C2.15877394,2.79360702 2.15703837,3.10941932 2.35467739,3.30705834 L11.047619,12 L2.35467739,20.6929417 C2.15879448,20.8888246 2.15726634,21.2048854 2.35463151,21.4022506 L2.59774944,21.6453685 C2.79360702,21.8412261 3.10941932,21.8429616 3.30705834,21.6453226 L12,12.952381 L20.6929417,21.6453226 C20.8888246,21.8412055 21.2048854,21.8427337 21.4022506,21.6453685 L21.6453685,21.4022506 C21.8412261,21.206393 21.8429616,20.8905807 21.6453226,20.6929417 L12.952381,12 L21.6453226,3.30705834 Z"/>
</svg>
