<svg xmlns="http://www.w3.org/2000/svg" width="24" height="24" viewBox="0 0 24 24">
  <path fill="#FFFFFF" fill-rule="evenodd" d="M665,10.5 L665,29.5 C665,30.875 663.875,32 662.5,32 L657,32 L657,22 L660,22 L660,19 L657,19 L657.005,17.327 C657.005,16.427 657.307,16 658.601,16 L660,16 L660,12 L656,12 C653,12 653,15 653,16 L653,19 L651,19 L651,22 L653,22 L653,32 L643.5,32 C642.125,32 641,30.875 641,29.5 L641,10.5 C641,9.125 642.125,8 643.5,8 L662.5,8 C663.875,8 665,9.125 665,10.5" transform="translate(-641 -8)"/>
</svg>
