<svg xmlns="http://www.w3.org/2000/svg" width="24" height="24" viewBox="0 0 24 24">
  <path fill="#FFFFFF" fill-rule="evenodd" d="M225.143,16.908 C225.149,17.061 225.153,17.217 225.153,17.372 C225.153,22.11 221.547,27.572 214.953,27.572 C212.928,27.572 211.044,26.979 209.458,25.961 C209.739,25.994 210.024,26.012 210.313,26.012 C211.993,26.012 213.539,25.438 214.765,24.477 C213.196,24.449 211.873,23.412 211.416,21.988 C211.636,22.031 211.86,22.051 212.091,22.051 C212.418,22.051 212.734,22.006 213.036,21.926 C211.395,21.597 210.16,20.148 210.16,18.41 L210.16,18.366 C210.643,18.634 211.196,18.797 211.784,18.812 C210.822,18.171 210.189,17.073 210.189,15.83 C210.189,15.173 210.366,14.556 210.674,14.028 C212.442,16.196 215.083,17.624 218.064,17.773 C218.002,17.51 217.971,17.237 217.971,16.955 C217.971,14.977 219.576,13.372 221.556,13.372 C222.587,13.372 223.519,13.806 224.173,14.504 C224.989,14.343 225.756,14.045 226.449,13.633 C226.181,14.471 225.613,15.173 224.873,15.616 C225.598,15.532 226.289,15.339 226.931,15.053 C226.45,15.77 225.843,16.401 225.143,16.908 M227.5,8 L208.5,8 C207.125,8 206,9.125 206,10.5 L206,29.5 C206,30.875 207.125,32 208.5,32 L227.5,32 C228.875,32 230,30.875 230,29.5 L230,10.5 C230,9.125 228.875,8 227.5,8" transform="translate(-206 -8)"/>
</svg>
