<svg xmlns="http://www.w3.org/2000/svg" width="24" height="24" viewBox="0 0 24 24">
  <g fill="#FFFFFF" fill-rule="evenodd">
    <path d="M4,9 C4,6.239 6.239,4 9,4 C11.761,4 14,6.239 14,9 C14,11.761 11.761,14 9,14 C6.239,14 4,11.761 4,9 M21.191,20.776 L14.147,13.733 C15.294,12.486 16,10.828 16,9 C16,5.134 12.866,2 9,2 C5.134,2 2,5.134 2,9 C2,12.866 5.134,16 9,16 C10.325,16 11.56,15.625 12.617,14.985 C12.649,15.03 12.668,15.082 12.709,15.123 L19.776,22.191 C20.163,22.577 20.802,22.583 21.192,22.192 C21.586,21.799 21.582,21.168 21.191,20.776"/>
    <polygon points="12.444 8.446 9.444 8.446 9.444 5.446 8.444 5.446 8.444 8.446 5.444 8.446 5.444 9.446 8.444 9.446 8.444 12.446 9.444 12.446 9.444 9.446 12.444 9.446"/>
  </g>
</svg>
