<?xml version="1.0" encoding="utf-8"?>
<!-- Generator: Adobe Illustrator 20.1.0, SVG Export Plug-In . SVG Version: 6.00 Build 0)  -->
<svg version="1.1" xmlns="http://www.w3.org/2000/svg" xmlns:xlink="http://www.w3.org/1999/xlink" x="0px" y="0px"
	 viewBox="0 0 310 50" style="enable-background:new 0 0 310 50;" xml:space="preserve">
<g id="wave_1_">
	<path id="S" d="M23.1,35.6l8.6-0.6c-0.4,1.1-0.5,2.3-0.3,3.5c0.4,1.3,1.7,2.1,3.1,1.9c1.2,0,2.3-0.4,3.3-1c0.9-0.5,1.5-1.3,1.9-2.3
		c0.3-0.7,0.3-1.5,0-2.2c-1-1-2.3-1.6-3.7-1.8c-3.5-1-5.7-2.2-6.7-3.8c-1.1-1.6-1-3.6,0-6.1c0.7-1.7,1.8-3.3,3.1-4.6
		c1.4-1.5,3.2-2.7,5.2-3.4c2.4-0.9,4.9-1.3,7.5-1.2c3.6,0,5.9,0.7,7.4,2.2c1.2,1.5,1.5,3.8,0.5,7.1l-8.6,0.6c0.3-1,0.3-2.1-0.1-3.1
		c-0.6-0.7-1.6-1.1-2.5-1c-0.9,0-1.8,0.2-2.6,0.7c-0.7,0.4-1.2,1-1.5,1.8c-0.2,0.4-0.2,0.9,0.1,1.4c0.7,0.6,1.5,1,2.5,1.2
		c2.5,0.5,4.9,1.4,7.1,2.7c1.1,0.9,1.9,2.1,2.2,3.5c0.2,1.6-0.1,3.2-0.7,4.7c-0.9,2.1-2.2,4-3.8,5.6c-1.6,1.7-3.6,3-5.8,3.9
		c-2.3,0.9-4.9,1.4-7.4,1.3c-4.8,0-7.6-1-8.7-3.1C22,41,22.1,38.1,23.1,35.6z"/>
	<g id="wave">
		<path d="M9.8,42.2c-3.9,4.7-9.7,6.6-9.8,6.3c3.7-1.6,6.8-4.1,9.2-7.4c4.3-5.8,8-16.2,12.1-21.8c5.9-8.2,12.8-12.2,22.5-12
			c5.4,0.2,10.6,1.8,15.1,4.8c-0.2,0.3-7.6-2.2-15-1.7c-9.6,0.8-15.4,4.2-21.9,12.6C16.8,29.2,15.1,36.2,9.8,42.2L9.8,42.2z"/>
		<path d="M22.5,14.7c-4.6,7-8.6,14.3-11.8,22c0-0.3,2.3-6.5,2.3-6.5c2.2-6.4,5-12.6,8.4-18.5c3.9-6,8.3-8.7,13.5-9.8
			c3.3-0.7,6.7-0.8,10-0.1C44.6,2.8,31,3.5,22.5,14.7z"/>
		<path d="M18.5,13.6C16.1,19,14,24.6,12.2,30.3c1.3-6.4,3-12.7,5.1-18.9c3.3-8.6,10.5-8.9,11-8.2C28.6,4.1,22.5,5.6,18.5,13.6z"/>
		<path d="M15.5,12.5c-1.2,3.5-2,7.1-2.5,10.7c0.1-4.1,0.6-8.2,1.5-12.3c1.9-7.2,3.7-7.9,4.7-7.2C20.4,5.1,17.5,6.7,15.5,12.5z"/>
	</g>
</g>
<g id="responsive">
	<g id="News_1_">
		<path d="M207.3,16.1h8.2c1.2,5.9,2.5,11.6,3.6,17.5l7.1-17.5h8.2l-12.9,31.6h-8.2c-1.2-5.9-2.4-11.6-3.6-17.5l-7.1,17.5h-8.2
			L207.3,16.1z M238.3,21h18.6l-2.2,5.4h-11.7l-1.6,4h10.8l-2.1,5.1h-10.8l-2,4.9h12l-2.3,5.7h-18.9L238.3,21z M259.1,21h6.6
			c-1.1,4.7-2.1,9.3-3.3,14c3.2-4.7,6.1-9.3,9.2-14h6.5c-0.8,4.7-1.5,9.3-2.2,14c2.8-4.7,5.4-9.3,8.1-14h6.6
			c-5.2,8.5-10.1,16.6-15.2,25.1h-6.8c0.9-5.4,1.7-10.5,2.5-15.8c-3.5,5.4-6.8,10.5-10.3,15.8h-6.8C255.6,37.7,257.3,29.6,259.1,21z
			 M284.8,37.9l6.8-0.5c-0.3,0.9-0.4,1.8-0.3,2.8c0.3,1,1,1.5,2.5,1.5c0.9,0,1.8-0.3,2.6-0.8c0.6-0.5,1.1-1.1,1.5-1.8
			c0.3-0.5,0.3-1.2,0-1.8c-0.4-0.5-1.2-1-3-1.5c-2.7-0.8-4.5-1.8-5.3-3.1c-0.8-1.5-0.8-3.3,0-4.9c0.6-1.4,1.4-2.6,2.5-3.7
			c1.2-1.2,2.6-2.1,4.1-2.7c1.9-0.7,3.9-1,5.9-1c2.8,0,4.8,0.6,5.9,1.8c1.1,1.2,1.2,3.1,0.4,5.7l-6.8,0.4c0.3-0.8,0.3-1.6-0.1-2.4
			c-0.5-0.6-1.2-0.9-2-0.8c-0.7,0-1.5,0.2-2.1,0.6c-0.5,0.3-0.9,0.8-1.2,1.4c-0.2,0.3-0.2,0.8,0,1.1c0.2,0.4,0.8,0.6,2,0.9
			c2,0.4,3.9,1.2,5.6,2.2c1,0.6,1.6,1.6,1.7,2.8c0.1,1.3-0.1,2.6-0.6,3.7c-0.7,1.7-1.7,3.2-3,4.4c-1.3,1.3-2.9,2.4-4.6,3.1
			c-1.9,0.7-3.9,1.1-5.9,1c-4,0-6.2-0.8-7-2.5C283.9,42.5,284.1,40.4,284.8,37.9L284.8,37.9z"/>
	</g>
	<g id="hikoku_1_">
		<path d="M59.3,21h7l-3.6,8.9h7.6l3.6-8.9h7L70.7,46.1h-7L67.8,36h-7.6l-4.1,10.2h-7L59.3,21z M86.4,21h7L83.1,46.1h-6.9L86.4,21z
			 M98.8,21h7l-3.8,9.5c3.7-3.2,7.4-6.3,11.2-9.5h9.3c-4,3.2-7.9,6.3-12.1,9.5c0.8,5.3,1.5,10.3,2.2,15.7h-8.6
			c-0.1-3.5-0.4-6.9-0.5-10.3c-1.9,1.5-3.5,2.8-5.3,4.2l-2.5,6.1h-7L98.8,21z"/>
		<path d="M127.6,28.2c1.1-1,2.5-1.6,4.1-1.7c1.6,0,2.4,0.5,2.8,1.6c0.4,1.1,0.1,2.8-0.8,5.2c-0.7,2.2-2,4.2-3.6,5.9
			c-1.1,1-2.6,1.6-4.1,1.6c-1.2,0.1-2.3-0.5-2.8-1.7c-0.4-1.1-0.1-3,1-5.5C124.8,31.6,126,29.7,127.6,28.2z M115.6,41
			c0.1,1.7,0.9,3.3,2.3,4.3c1.7,1,3.8,1.5,5.8,1.4c2.4,0,4.8-0.5,6.9-1.6c2.2-1.1,4.1-2.6,5.6-4.4c1.8-2.2,3.2-4.6,4.3-7.2
			c1.7-4.1,1.9-7.1,0.8-9.5c-1.2-2.3-3.5-3.4-7.3-3.4c-3.6,0-7.1,1.2-10,3.4c-3.2,2.5-5.6,5.8-7,9.6C115.9,35.9,115.4,38.5,115.6,41
			L115.6,41z M148.7,21h7l-3.9,9.5c3.7-3.2,7.4-6.3,11.2-9.5h9.3c-4,3.2-7.9,6.3-12.1,9.5c0.8,5.3,1.5,10.3,2.2,15.7h-8.6
			c-0.1-3.5-0.4-6.9-0.5-10.3c-1.9,1.5-3.6,2.8-5.3,4.2l-2.5,6.1h-7L148.7,21z M190.5,21h7l-6.1,15c-0.7,1.5-1.5,2.9-2.4,4.2
			c-1,1.3-2.1,2.5-3.4,3.5c-1.1,0.9-2.3,1.6-3.6,2.1c-1.7,0.6-3.4,0.9-5.2,0.8c-1.2,0-2.3-0.1-3.5-0.3c-1-0.1-2-0.4-2.8-1
			c-0.7-0.5-1.3-1.3-1.5-2.2c-0.3-0.9-0.4-2-0.3-3c0.2-1.5,0.6-2.9,1.1-4.3l6.1-15h7l-6.3,15.4c-0.5,1-0.7,2.1-0.3,3.2
			c0.5,0.8,1.4,1.3,2.3,1.2c1.2,0,2.3-0.4,3.3-1.1c1.1-0.8,1.9-2,2.3-3.2L190.5,21z"/>
	</g>
	<g id="jp_1_">
		<path d="M115.2,7.1h0.9V1h-6.5v14h1.8V7.1L115.2,7.1z M114.3,4.9v0.8h-2.9V4.9H114.3z M111.4,3.6V2.5h2.8v1.1L111.4,3.6z M122.1,1
			h-5.5v6.1h4.6V15h1.8V1H122.1z M121.2,3.6h-2.8V2.5h2.8V3.6z M118.4,5.7V4.9h2.8v0.8H118.4z"/>
		<path d="M112.6,9.2h0.8V13h-0.8v1.3h4.9V15h1.8V9.2h0.8V8h-7.4L112.6,9.2z M115.2,10.8h2.2v0.6h-2.2V10.8z M115.2,13v-0.6h2.2V13
			H115.2z M117.5,9.9h-2.3V9.2h2.2L117.5,9.9z M107.1,5.7h-5V3.5c0-0.3,0.1-0.5,0.3-0.7c0.2-0.2,0.5-0.2,0.8-0.2h3.8V1.1h-3.8
			c-0.8-0.1-1.6,0.2-2.2,0.7c-0.5,0.5-0.7,1.1-0.7,1.8v11.4h1.8V7.2h1.7V15h1.8V7.2h1.5L107.1,5.7z M97.6,10.2h2.1V8.7h-2.1V7.2h2.1
			V5.8h-0.8V3.7h0.8V2.2h-2.1V1.1h-1.8v1.1h-2.2v1.5h0.8v2h-0.8v1.5h2.2v1.5h-2.2v1.5h2.2c-0.5,1-1.3,1.8-2.2,2.4v2.4
			c0,0,0.8-0.2,2.2-2.1v2.1h1.8v-2.1c1.4,1.9,2.2,2.1,2.2,2.1v-2.3C98.9,12,98.1,11.2,97.6,10.2z M95.9,4.2h1.5v1.5h-1.5V4.2z
			 M74.5,1H62.2v13.9h13.3V1H74.5z M73.6,9.4h-0.8c-0.4,0-0.8-0.1-1.2-0.3c-0.2-0.2-0.3-0.5-0.3-0.8V2.5h2.2V9.4z M64,13.5v-11h2.2
			v4.7c0,1.1-0.3,2.1-1,3v1.8C67,11,68,9.1,67.9,7.1V2.5h1.6v5.7c-0.1,0.7,0.2,1.4,0.7,1.9c0.7,0.6,1.6,0.9,2.5,0.8h0.8v2.6L64,13.5
			z M78.8,1h-0.9v13.9h13.3V1H78.8z M89.3,13.5h-9.6v-11h9.6L89.3,13.5z"/>
		<path d="M88,11h0.6V8.8h-1.8V11h-1.4V8.4H88V7h-2.6V5.1H88V3.6h-7.1v1.5h2.7V7h-2.7v1.5h2.7V11h-2.7v1.5H88C88,12.5,88,11,88,11z
			 M136.4,13.5V7.3h2.4V5.8h-2.4V1h-1.8v4.8h-2.3v1.5h2.3v6.2h-2.7V15h7.3v-1.5C139.1,13.5,136.4,13.5,136.4,13.5z"/>
		<path d="M132.3,11.9V9.8c-0.7-0.4-1.4-0.8-2.2-1c1.4-1.5,2.2-3.5,2.4-5.5c0-1.1-1.3-1-1.3-1h-1.5V1H128v1.3h-2.5v1.5h4.8
			c0,0,0.4,0,0.5,0.1c0,0.2,0,0.4,0,0.5c-0.8,2.5-2.7,4.5-5.2,5.4v1.9c0.9-0.3,1.7-0.6,2.5-1.1V15h1.8v-4.5
			C130.7,10.9,131.5,11.4,132.3,11.9z"/>
	</g>
</g>
</svg>
